<?xml version="1.0" standalone="no"?>
<!DOCTYPE svg PUBLIC "-//W3C//DTD SVG 20010904//EN"
 "http://www.w3.org/TR/2001/REC-SVG-20010904/DTD/svg10.dtd">
<svg version="1.0" xmlns="http://www.w3.org/2000/svg"
 width="384.000000pt" height="384.000000pt" viewBox="0 0 1280.000000 1280.000000"
 preserveAspectRatio="xMidYMid meet">

<g transform="translate(0.000000,1280.000000) scale(0.100000,-0.100000)"
fill="#000000" stroke="none">
<path d="M9543 8343 l-183 -3 0 -1325 0 -1325 185 0 185 0 0 1330 c0 732 -1
1329 -2 1328 -2 -2 -85 -4 -185 -5z"/>
<path d="M6440 7185 l0 -1155 -135 0 -135 0 0 263 c0 298 -11 390 -59 485 -53
105 -141 164 -286 192 -42 7 -267 10 -755 8 l-695 -3 0 -170 0 -170 190 3
c272 5 343 -13 403 -102 l32 -48 0 -229 0 -229 -750 0 -750 0 0 491 0 490 -47
-6 c-171 -23 -252 -77 -315 -210 l-33 -70 -3 -517 -3 -518 1141 0 1140 0 0
475 0 475 86 0 c128 0 217 -23 263 -69 58 -58 61 -82 61 -505 l0 -376 515 0
515 0 0 1325 0 1325 -190 0 -190 0 0 -1155z"/>
<path d="M7890 6980 l0 -250 180 0 180 0 0 96 0 97 113 -5 c164 -8 228 -43
279 -153 22 -48 23 -65 28 -350 5 -291 6 -301 28 -337 12 -20 28 -39 35 -42 7
-2 -241 -5 -550 -5 l-563 -1 0 595 0 595 -185 0 -185 0 -2 -794 -3 -794 -30
-44 c-34 -48 -75 -66 -165 -74 -110 -10 -101 4 -98 -147 l3 -132 130 -3 c152
-3 238 9 309 45 111 56 195 183 218 331 l12 82 803 0 803 0 -2 167 -3 168 -46
6 c-57 8 -94 32 -117 73 -15 27 -18 79 -23 396 -5 332 -8 371 -27 433 -11 37
-30 82 -41 100 -31 51 -101 113 -158 142 -96 48 -171 55 -564 55 l-359 0 0
-250z"/>
<path d="M3830 5305 l0 -175 205 0 205 0 0 175 0 175 -205 0 -205 0 0 -175z"/>
<path d="M4410 5305 l0 -175 208 2 207 3 0 170 0 170 -207 3 -208 2 0 -175z"/>
<path d="M8254 5467 c-2 -7 -3 -85 -2 -172 l3 -160 208 -3 207 -2 0 175 0 175
-205 0 c-159 0 -207 -3 -211 -13z"/>
<path d="M2935 4669 c-33 -4 -105 -11 -160 -14 -55 -3 -143 -7 -195 -10 -52
-3 -117 -10 -143 -15 -26 -6 -63 -10 -81 -10 -18 0 -36 -3 -40 -7 -12 -12 -40
-12 -48 0 -6 9 -10 9 -16 -1 -6 -9 -52 -14 -153 -18 -79 -3 -151 -8 -159 -11
-8 -4 -30 -7 -48 -8 -18 0 -36 -6 -40 -12 -4 -6 -38 -13 -75 -15 -37 -1 -67
-6 -67 -10 0 -5 -6 -8 -14 -8 -8 0 -21 -8 -28 -18 -7 -11 -20 -21 -28 -25 -12
-4 -11 -6 3 -6 9 -1 17 -9 17 -18 0 -9 -3 -13 -6 -10 -4 3 -15 2 -26 -4 -20
-11 -20 -11 1 -30 21 -20 29 -45 11 -34 -5 3 -10 0 -10 -8 0 -8 9 -17 21 -20
26 -7 19 -33 -7 -29 -10 2 -16 1 -12 -3 16 -16 213 -22 318 -11 36 4 111 11
168 14 98 7 108 5 103 -22 -1 -5 19 -6 46 -1 26 4 72 11 101 14 30 4 58 14 63
22 8 12 10 12 18 0 7 -10 20 -12 52 -7 117 19 433 29 461 15 10 -6 18 -5 20 2
3 8 41 12 111 12 59 -1 107 2 107 6 0 4 30 8 66 9 37 1 71 5 76 9 6 3 38 5 72
5 33 0 86 4 116 10 30 5 64 11 75 12 11 2 22 4 25 5 3 0 75 3 160 6 85 3 171
8 190 10 19 3 53 6 75 6 22 1 46 6 53 12 8 6 12 6 12 -3 0 -8 9 -11 25 -8 13
3 26 0 29 -6 3 -7 5 -6 5 2 1 7 6 10 12 6 6 -3 15 0 20 7 7 11 9 11 9 1 0 -11
22 -13 99 -10 55 1 103 -1 107 -5 4 -4 -6 -7 -22 -8 -16 -1 -42 -3 -59 -5 -16
-1 -75 -8 -130 -15 -55 -6 -120 -12 -145 -14 -25 -2 -56 -6 -70 -9 -14 -3 -79
-10 -145 -16 -66 -5 -140 -12 -165 -14 -46 -5 -131 -12 -254 -21 -39 -3 -76
-11 -83 -17 -9 -7 -17 -7 -28 2 -8 7 -20 8 -27 4 -7 -5 -21 -7 -30 -6 -10 2
-18 -1 -18 -5 0 -13 -44 -11 -52 1 -5 8 -8 8 -8 0 0 -7 -35 -14 -92 -18 -51
-4 -111 -9 -133 -11 -22 -2 -76 -7 -120 -10 -43 -4 -82 -8 -85 -10 -3 -1 -48
-6 -100 -10 -52 -4 -113 -9 -135 -11 -22 -2 -69 -6 -105 -10 -35 -3 -70 -10
-76 -15 -6 -5 -37 -10 -68 -10 -31 -1 -59 -5 -62 -10 -2 -4 -11 -6 -18 -3 -7
3 -67 -2 -132 -11 -66 -9 -155 -21 -199 -25 -100 -11 -138 -20 -147 -34 -5 -7
-8 -5 -8 5 0 18 -31 19 -52 2 -20 -16 -138 -25 -138 -10 0 9 -2 9 -8 1 -7 -10
-47 -19 -137 -29 -22 -3 -50 -7 -62 -10 -12 -3 -25 -1 -28 5 -3 5 -13 10 -21
10 -8 0 -12 -4 -9 -10 4 -6 -9 -10 -32 -10 -43 0 -118 -19 -109 -27 3 -3 -4
-15 -17 -26 l-22 -19 23 6 c12 4 22 3 22 -2 0 -5 -9 -12 -20 -15 -33 -9 -19
-64 20 -80 11 -4 10 -6 -4 -6 -10 -1 -25 7 -32 17 -7 9 -14 12 -14 7 0 -6 12
-23 26 -38 21 -23 23 -31 14 -42 -10 -12 -9 -15 4 -15 10 0 15 -3 13 -7 -3 -5
7 -10 21 -12 33 -6 234 -5 355 0 48 2 87 2 87 -2 0 -3 14 -3 31 -1 17 3 26 8
20 12 -7 3 6 6 29 6 22 0 40 -4 40 -9 0 -5 -9 -7 -20 -4 -11 3 -17 1 -14 -5 3
-5 18 -6 33 -3 24 5 174 16 224 16 13 0 17 5 13 16 -5 12 -4 13 7 5 13 -11
104 -16 187 -11 70 4 92 0 86 -16 -3 -9 0 -15 9 -15 8 0 15 7 15 15 0 8 7 15
16 15 9 0 12 5 8 13 -6 8 -3 8 9 -1 9 -8 21 -11 26 -8 5 4 33 8 62 11 28 2 58
10 65 16 11 9 14 9 14 0 0 -7 4 -10 9 -7 5 4 12 0 15 -6 5 -10 7 -10 12 0 3 6
15 12 27 12 22 -1 22 -1 -2 -20 -13 -11 -31 -20 -40 -20 -14 0 -14 -2 -1 -10
8 -5 44 -7 80 -4 36 2 72 4 80 3 113 -4 296 4 302 14 6 9 8 9 8 -1 0 -10 8
-12 30 -7 16 4 53 8 81 10 29 2 56 10 60 17 6 9 10 8 15 -5 4 -13 10 -15 19
-7 16 13 87 8 100 -7 13 -16 125 -23 125 -8 0 20 -11 24 -37 14 -19 -7 -24 -6
-21 3 7 21 50 39 65 26 10 -8 13 -7 13 3 0 9 3 10 11 2 13 -13 49 -5 49 11 0
6 5 4 11 -4 8 -11 12 -12 16 -2 2 6 11 12 19 12 8 0 14 7 14 15 0 8 5 15 12
15 6 0 8 -3 5 -7 -4 -3 0 -14 9 -24 14 -16 19 -16 38 -3 13 8 25 12 28 9 3 -3
35 -1 72 4 73 11 136 0 84 -14 -16 -4 -28 -11 -28 -16 0 -13 34 -11 49 4 11
10 13 10 7 0 -4 -7 -2 -13 4 -13 6 0 8 11 4 28 -4 18 -2 23 4 14 7 -10 11 -10
21 2 7 8 19 12 27 9 8 -3 14 0 14 6 0 6 7 11 15 11 12 0 11 -4 -5 -20 -11 -11
-24 -20 -30 -20 -5 0 -7 -6 -4 -14 4 -11 13 -12 34 -6 16 5 38 6 50 3 11 -3
20 0 20 6 0 6 -17 11 -37 12 l-38 0 40 15 c22 8 70 16 107 17 38 1 68 5 68 9
0 4 43 6 95 5 52 -1 95 0 95 3 0 3 22 3 50 2 28 -2 50 0 50 6 0 5 31 9 73 8
39 -1 80 1 89 6 10 5 19 4 23 -2 5 -8 11 -8 19 -1 7 6 37 10 67 11 83 0 119 2
207 14 26 4 42 2 42 -5 0 -5 3 -8 8 -6 15 10 179 19 607 33 77 2 178 7 225 9
47 3 102 6 123 6 20 0 37 5 37 10 0 6 6 4 14 -3 13 -13 90 -17 102 -5 3 2 25
2 49 -1 26 -2 45 0 45 5 0 5 13 10 30 10 16 0 27 -3 25 -7 -2 -4 11 -6 30 -6
24 1 34 5 32 15 -1 8 4 16 12 19 10 3 11 -2 7 -19 -7 -22 -6 -23 8 -6 9 12 16
14 21 8 9 -15 62 -14 68 2 4 10 6 10 6 0 1 -18 28 -16 35 2 3 8 10 15 16 15 5
0 10 -7 10 -15 0 -10 10 -15 30 -15 17 0 29 5 27 11 -1 6 4 14 11 16 6 3 12
-2 12 -11 0 -12 5 -14 23 -7 14 5 30 5 40 0 11 -6 28 -5 50 5 20 8 40 10 48 6
7 -5 16 -7 20 -4 4 2 10 0 14 -6 4 -6 10 -8 15 -5 4 2 28 6 54 6 25 1 46 6 46
11 0 4 7 8 16 8 8 0 13 -4 10 -9 -3 -5 12 -11 34 -13 22 -2 40 0 40 3 0 4 9 5
20 2 13 -3 20 0 20 8 0 9 3 10 11 2 6 -6 23 -8 44 -3 19 4 37 5 40 2 10 -10
49 -8 57 3 4 5 17 3 34 -5 21 -12 28 -12 31 -2 6 15 43 16 43 1 0 -6 7 -8 16
-5 9 4 13 2 8 -5 -4 -7 -1 -10 7 -7 8 3 22 1 32 -4 12 -6 23 -5 33 3 11 9 21
9 39 1 14 -7 25 -8 25 -4 0 4 39 7 86 6 47 0 88 4 91 9 3 5 8 4 12 -2 9 -15
79 -22 84 -8 2 7 8 7 18 2 22 -14 37 -14 43 0 3 10 14 11 42 5 21 -5 47 -5 61
1 14 5 29 7 34 3 5 -3 9 1 9 8 0 8 3 9 8 3 11 -15 28 -17 152 -19 63 0 118 -5
121 -9 3 -4 17 -4 30 2 24 9 268 6 341 -4 21 -3 46 0 56 6 14 9 27 9 50 1 17
-6 33 -8 35 -5 5 4 161 14 232 13 29 0 29 1 10 16 -19 16 -18 16 15 10 18 -3
37 -11 41 -17 4 -7 9 -4 13 6 10 28 7 33 -18 31 -14 -2 -28 4 -34 15 -11 17
-8 18 33 15 30 -2 46 1 49 10 3 8 10 14 17 14 6 0 9 -7 5 -15 -5 -14 5 -19 32
-16 7 1 11 -4 10 -11 -5 -23 -22 -27 -40 -11 -10 9 -21 13 -26 9 -4 -4 1 -14
11 -21 22 -16 123 -15 119 0 -1 6 -13 9 -27 9 -26 -1 -34 11 -12 19 10 4 10 6
0 6 -15 1 -18 31 -3 31 5 0 15 -9 22 -20 12 -19 51 -29 45 -12 -1 4 3 7 8 7 5
0 9 -3 8 -7 -2 -5 4 -8 13 -8 13 0 14 -3 5 -14 -17 -20 11 -28 36 -11 12 9 24
10 34 4 18 -11 32 -12 25 0 -4 5 0 12 6 14 7 3 0 4 -17 4 -24 -2 -29 2 -27 17
8 45 50 54 80 17 11 -14 11 -14 6 2 -4 11 -1 17 10 17 9 0 16 -5 16 -10 0 -7
6 -7 19 0 11 5 27 7 35 4 9 -3 24 -3 34 1 31 14 54 15 68 4 18 -15 18 -33 0
-26 -15 6 -69 -26 -60 -36 4 -3 19 0 35 8 21 11 35 12 54 5 34 -13 34 -13 28
9 -3 12 -11 17 -19 14 -19 -7 -18 11 1 27 10 9 15 9 15 1 0 -17 17 -13 24 5 9
25 0 29 -26 12 -19 -13 -25 -13 -36 -2 -6 7 -12 18 -12 24 0 13 -23 13 -37 -1
-6 -6 -17 -8 -23 -4 -9 6 -8 10 4 17 9 5 16 16 16 25 0 9 6 13 15 10 8 -4 17
-2 20 4 11 18 -20 34 -70 37 -89 6 -329 6 -360 0 -16 -3 -20 -3 -7 -1 16 3 22
9 18 20 -3 8 -6 17 -6 21 0 3 -6 -3 -14 -13 -13 -18 -14 -18 -41 -1 -28 18
-28 18 -22 -3 7 -28 -11 -27 -23 2 -5 12 -9 16 -9 10 -1 -8 -14 -13 -32 -13
-17 0 -28 -4 -24 -10 3 -5 -1 -10 -9 -10 -8 0 -18 9 -21 20 -7 24 -23 26 -31
5 -4 -8 -17 -15 -31 -15 -13 0 -22 4 -19 9 3 5 -4 11 -15 14 -17 5 -20 2 -16
-14 7 -26 -10 -25 -18 1 -6 17 -13 20 -46 17 -22 -2 -42 0 -45 5 -3 5 -18 6
-33 3 -15 -3 -47 -1 -71 4 -31 7 -48 7 -57 -1 -9 -7 -13 -7 -13 1 0 6 -9 11
-20 11 -12 0 -20 -7 -20 -17 -1 -17 -1 -17 -11 0 -13 22 -24 22 -49 -3 -20
-20 -20 -20 -20 0 0 23 -21 26 -70 9 -24 -9 -34 -9 -39 0 -11 17 -287 35 -297
20 -3 -5 -10 -9 -15 -9 -6 0 -8 4 -5 9 3 4 -21 9 -54 9 -40 1 -60 -3 -60 -11
0 -7 -4 -6 -11 3 -7 11 -12 12 -15 3 -3 -7 -11 -10 -19 -7 -7 3 -22 1 -33 -5
-16 -8 -21 -7 -26 5 -5 12 -16 15 -46 12 -22 -2 -40 -1 -40 2 0 3 -163 6 -362
6 -200 1 -394 2 -433 3 -38 1 -143 1 -233 -1 -89 -2 -162 0 -162 5 0 4 3 7 8
8 4 0 45 3 92 5 49 3 88 10 92 17 6 9 10 9 17 -2 6 -9 11 -10 15 -2 4 6 13 8
19 4 16 -10 47 -11 47 -2 0 4 23 7 51 7 28 1 54 3 57 6 3 3 11 1 19 -5 10 -9
17 -8 28 1 11 9 15 9 15 1 0 -7 5 -9 11 -5 12 7 40 9 244 19 77 4 143 9 148
12 4 2 7 0 7 -5 0 -9 9 -9 85 2 71 11 235 12 235 1 0 -5 4 -4 9 4 7 12 13 12
24 3 7 -7 17 -9 20 -6 4 4 86 8 184 11 99 2 179 8 181 13 2 6 10 6 21 1 9 -5
66 -8 127 -5 145 6 133 6 264 4 63 -1 147 -1 185 0 123 2 404 -8 415 -15 5 -3
10 -1 10 5 0 6 8 9 18 6 9 -3 50 -6 90 -7 39 -1 72 -5 72 -9 0 -9 427 -13 573
-6 21 1 43 -4 49 -11 8 -10 14 -10 24 -2 7 6 28 11 46 10 18 -1 76 -2 128 -3
52 -1 98 -7 102 -13 5 -7 8 -7 8 0 0 6 17 9 38 8 20 -1 139 -3 264 -5 124 -2
224 -6 221 -10 -2 -5 11 -6 29 -5 18 2 39 -1 46 -6 8 -6 17 -5 27 3 8 7 15 9
15 4 0 -5 34 -10 75 -10 42 -1 75 2 75 8 0 5 -10 6 -22 3 -18 -5 -20 -4 -8 4
19 13 50 14 50 1 0 -5 7 -7 15 -4 8 4 15 1 15 -6 0 -7 7 -10 15 -7 8 4 17 2
20 -3 4 -6 24 -10 46 -10 22 0 38 4 35 9 -3 5 4 11 17 15 31 8 39 7 33 -3 -8
-12 45 -21 125 -21 49 0 69 4 69 13 0 9 2 9 8 -1 6 -9 41 -11 130 -10 103 3
122 5 122 19 0 11 8 14 28 12 22 -3 29 1 40 23 15 35 15 47 0 38 -7 -4 -8 -3
-4 5 4 6 11 9 16 6 4 -3 11 2 14 11 10 27 7 52 -9 58 -13 4 -14 10 -5 26 9 17
7 25 -12 45 -13 14 -31 25 -41 25 -10 0 -20 7 -23 15 -6 13 -489 15 -4318 14
-2371 -1 -4338 -5 -4371 -10z m2325 -209 c-8 -5 -26 -9 -40 -9 -23 1 -23 2 5
9 43 11 52 11 35 0z m-335 -20 c3 -5 1 -10 -4 -10 -6 0 -11 5 -11 10 0 6 2 10
4 10 3 0 8 -4 11 -10z m152 4 c-3 -3 -12 -4 -19 -1 -8 3 -5 6 6 6 11 1 17 -2
13 -5z m-462 -34 c-3 -5 -10 -10 -16 -10 -5 0 -9 5 -9 10 0 6 7 10 16 10 8 0
12 -4 9 -10z m-575 -50 c0 -5 -8 -10 -17 -10 -15 0 -16 2 -3 10 19 12 20 12
20 0z m-1726 -19 c6 -9 -35 -24 -43 -15 -6 5 18 24 31 24 4 0 9 -4 12 -9z
m1301 -21 c3 -6 -1 -7 -9 -4 -18 7 -21 14 -7 14 6 0 13 -4 16 -10z m-41 -12
c-3 -4 -9 -8 -15 -8 -5 0 -9 4 -9 8 0 5 7 9 15 9 8 0 12 -4 9 -9z m4946 2 c0
-5 -2 -10 -4 -10 -3 0 -8 5 -11 10 -3 6 -1 10 4 10 6 0 11 -4 11 -10z m-30 -4
c0 -3 -4 -8 -10 -11 -5 -3 -10 -1 -10 4 0 6 5 11 10 11 6 0 10 -2 10 -4z
m-5650 -72 c0 -2 -14 -4 -31 -4 -16 0 -28 4 -25 9 5 8 56 3 56 -5z m6552 -19
c5 -24 3 -25 -38 -22 -35 2 -43 6 -47 25 -3 18 0 22 19 22 18 0 24 -6 24 -21
0 -18 3 -19 14 -9 8 6 12 19 9 27 -4 10 -2 14 4 10 6 -4 13 -18 15 -32z
m-6635 8 c-9 -9 -19 -14 -23 -11 -10 10 6 28 24 28 15 0 15 -1 -1 -17z m6287
5 c-3 -4 0 -8 5 -8 6 0 11 5 11 10 0 6 5 10 11 10 6 0 8 -8 4 -19 -4 -14 0
-21 12 -24 12 -3 9 -5 -8 -6 -16 -1 -29 5 -33 15 -3 8 -10 12 -16 9 -5 -3 -10
0 -10 8 0 7 7 14 15 14 8 0 12 -4 9 -9z m106 -8 c9 -5 19 -5 27 2 7 6 14 8 14
4 1 -3 3 -10 4 -16 1 -5 3 -13 4 -17 0 -3 9 4 20 15 21 25 31 28 31 10 0 -7
-10 -18 -23 -23 -17 -8 -32 -6 -67 12 -25 12 -40 22 -35 22 6 0 17 -3 25 -9z
m-215 -10 c-3 -5 -12 -10 -18 -10 -7 0 -6 4 3 10 19 12 23 12 15 0z m-6420
-10 c3 -5 -1 -10 -10 -10 -9 0 -13 5 -10 10 3 6 8 10 10 10 2 0 7 -4 10 -10z
m42 4 c-3 -3 -12 -4 -19 -1 -8 3 -5 6 6 6 11 1 17 -2 13 -5z m6243 -2 c0 -13
-12 -22 -22 -16 -10 6 -1 24 13 24 5 0 9 -4 9 -8z m335 -2 c3 -5 1 -10 -4 -10
-6 0 -11 5 -11 10 0 6 2 10 4 10 3 0 8 -4 11 -10z m-6742 -7 c-7 -2 -19 -2
-25 0 -7 3 -2 5 12 5 14 0 19 -2 13 -5z m6528 -3 c5 0 9 -4 9 -10 0 -5 -6 -7
-14 -4 -8 3 -17 1 -21 -5 -11 -19 -23 -12 -18 10 4 12 11 18 20 15 8 -3 19 -6
24 -6z m66 4 c-3 -3 -12 -4 -19 -1 -8 3 -5 6 6 6 11 1 17 -2 13 -5z m-6697
-14 c0 -5 -5 -10 -11 -10 -5 0 -7 5 -4 10 3 6 8 10 11 10 2 0 4 -4 4 -10z
m6572 3 c-6 -3 -10 -9 -6 -14 3 -5 0 -9 -5 -9 -6 0 -11 5 -11 11 0 8 -6 7 -17
-2 -16 -12 -17 -12 -6 1 6 9 22 16 35 17 13 0 17 -1 10 -4z m-6605 -9 c-3 -3
-12 -4 -19 -1 -8 3 -5 6 6 6 11 1 17 -2 13 -5z m6803 -4 c0 -5 -8 -10 -17 -10
-15 0 -16 2 -3 10 19 12 20 12 20 0z m70 0 c0 -5 -4 -10 -9 -10 -6 0 -13 5
-16 10 -3 6 1 10 9 10 9 0 16 -4 16 -10z m70 -20 c0 -5 -4 -10 -10 -10 -5 0
-10 5 -10 10 0 6 5 10 10 10 6 0 10 -4 10 -10z m-370 -35 c0 -1 -8 -9 -17 -16
-11 -10 -14 -10 -9 -1 4 6 2 12 -3 12 -6 0 -11 4 -11 9 0 5 9 7 20 4 11 -3 20
-7 20 -8z m360 -25 c0 -5 -2 -10 -4 -10 -3 0 -8 5 -11 10 -3 6 -1 10 4 10 6 0
11 -4 11 -10z m-4400 -90 c-8 -5 -22 -9 -30 -9 -10 0 -8 3 5 9 27 12 43 12 25
0z m-970 -64 c0 -3 -4 -8 -10 -11 -5 -3 -10 -1 -10 4 0 6 5 11 10 11 6 0 10
-2 10 -4z m-536 -17 c-3 -5 -20 -9 -37 -9 -18 0 -27 4 -20 8 16 10 64 11 57 1z
m-87 -5 c-3 -3 -12 -4 -19 -1 -8 3 -5 6 6 6 11 1 17 -2 13 -5z m-299 -16 c-4
-12 -58 -18 -58 -6 0 3 12 9 28 11 15 2 29 5 30 6 2 0 2 -4 0 -11z m185 5 c-7
-2 -19 -2 -25 0 -7 3 -2 5 12 5 14 0 19 -2 13 -5z m-263 -13 c0 -5 -5 -10 -11
-10 -5 0 -7 5 -4 10 3 6 8 10 11 10 2 0 4 -4 4 -10z m-132 -17 c-2 -13 -17
-17 -76 -20 -55 -2 -73 0 -69 10 2 7 27 13 62 15 33 2 61 5 64 7 10 11 22 4
19 -12z m92 13 c0 -2 -7 -6 -15 -10 -8 -3 -15 -1 -15 4 0 6 7 10 15 10 8 0 15
-2 15 -4z m255 -15 c3 -5 1 -12 -5 -16 -5 -3 -10 1 -10 9 0 18 6 21 15 7z
m258 -26 c-5 -16 -33 -21 -33 -7 0 13 22 32 31 26 5 -2 6 -11 2 -19z m-573
-15 c0 -5 -4 -10 -9 -10 -6 0 -13 5 -16 10 -3 6 1 10 9 10 9 0 16 -4 16 -10z"/>
<path d="M8721 4424 c0 -11 3 -14 6 -6 3 7 2 16 -1 19 -3 4 -6 -2 -5 -13z"/>
<path d="M9108 4433 c7 -3 16 -2 19 1 4 3 -2 6 -13 5 -11 0 -14 -3 -6 -6z"/>
<path d="M9145 4430 c3 -5 8 -10 11 -10 2 0 4 5 4 10 0 6 -5 10 -11 10 -5 0
-7 -4 -4 -10z"/>
<path d="M8588 4413 c7 -3 16 -2 19 1 4 3 -2 6 -13 5 -11 0 -14 -3 -6 -6z"/>
<path d="M2160 4311 c0 -5 -8 -12 -17 -14 -10 -3 -5 -4 11 -3 31 3 50 26 22
26 -9 0 -16 -4 -16 -9z"/>
<path d="M2013 4283 c9 -2 23 -2 30 0 6 3 -1 5 -18 5 -16 0 -22 -2 -12 -5z"/>
<path d="M1868 4273 c6 -2 18 -2 25 0 6 3 1 5 -13 5 -14 0 -19 -2 -12 -5z"/>
<path d="M1928 4273 c7 -3 16 -2 19 1 4 3 -2 6 -13 5 -11 0 -14 -3 -6 -6z"/>
<path d="M9560 4267 c0 -9 13 -16 35 -19 19 -2 35 0 35 4 0 4 -6 9 -12 10 -7
0 -17 2 -23 2 -5 1 -16 5 -22 9 -8 5 -13 3 -13 -6z"/>
<path d="M9538 4245 c2 -14 8 -25 13 -25 14 0 11 26 -5 39 -11 9 -12 6 -8 -14z"/>
<path d="M9644 4256 c-8 -22 3 -33 18 -18 9 9 9 15 0 24 -9 9 -13 7 -18 -6z"/>
<path d="M9737 4233 c-9 -2 -15 -9 -12 -14 10 -15 32 -10 32 6 0 8 -1 14 -1
14 -1 -1 -9 -3 -19 -6z"/>
<path d="M9610 4163 l0 -36 25 23 c19 18 22 26 14 37 -22 25 -39 15 -39 -24z"/>
<path d="M9694 4172 c-6 -4 -14 -17 -18 -29 -5 -15 -15 -23 -29 -23 -18 0 -19
-2 -7 -10 22 -15 30 -12 40 13 5 12 9 16 9 10 1 -7 6 -13 11 -13 6 0 9 14 8
30 -1 17 -2 30 -3 30 0 0 -5 -4 -11 -8z"/>
<path d="M9567 4156 c-3 -8 1 -20 9 -26 12 -10 14 -8 12 14 -3 28 -13 34 -21
12z"/>
<path d="M9720 4146 c0 -2 7 -9 15 -16 12 -10 15 -10 15 4 0 9 -7 16 -15 16
-8 0 -15 -2 -15 -4z"/>
<path d="M9250 4124 c0 -8 5 -12 10 -9 6 3 10 10 10 16 0 5 -4 9 -10 9 -5 0
-10 -7 -10 -16z"/>
<path d="M9350 4129 c0 -5 5 -7 10 -4 6 3 10 8 10 11 0 2 -4 4 -10 4 -5 0 -10
-5 -10 -11z"/>
<path d="M9390 4120 c0 -5 -8 -10 -17 -10 -12 0 -14 -3 -7 -8 7 -4 14 -18 17
-32 4 -24 4 -24 6 3 0 15 8 30 16 33 8 4 12 10 9 15 -7 12 -24 11 -24 -1z"/>
<path d="M9273 4094 c0 -16 13 -19 22 -4 3 6 11 10 16 10 6 0 8 -4 4 -9 -3 -5
0 -13 6 -17 8 -4 9 -3 5 4 -4 7 -2 12 3 12 6 0 11 -7 11 -15 0 -8 5 -15 11
-15 5 0 7 5 4 10 -3 6 0 10 7 10 24 1 -27 24 -58 26 -21 2 -31 -2 -31 -12z"/>
<path d="M9625 4090 c27 -12 43 -12 25 0 -8 5 -22 9 -30 9 -10 0 -8 -3 5 -9z"/>
<path d="M9685 4090 c-3 -5 -1 -10 4 -10 6 0 11 5 11 10 0 6 -2 10 -4 10 -3 0
-8 -4 -11 -10z"/>
<path d="M8950 4061 c0 -6 5 -13 10 -16 6 -3 10 1 10 9 0 9 -4 16 -10 16 -5 0
-10 -4 -10 -9z"/>
<path d="M9100 4050 c0 -5 5 -10 10 -10 6 0 10 5 10 10 0 6 -4 10 -10 10 -5 0
-10 -4 -10 -10z"/>
<path d="M9200 4050 c0 -5 5 -10 10 -10 6 0 10 5 10 10 0 6 -4 10 -10 10 -5 0
-10 -4 -10 -10z"/>
<path d="M7168 4003 c7 -3 16 -2 19 1 4 3 -2 6 -13 5 -11 0 -14 -3 -6 -6z"/>
<path d="M6288 3993 c6 -2 18 -2 25 0 6 3 1 5 -13 5 -14 0 -19 -2 -12 -5z"/>
<path d="M5808 3983 c7 -3 16 -2 19 1 4 3 -2 6 -13 5 -11 0 -14 -3 -6 -6z"/>
<path d="M5388 3968 c9 -9 15 -9 24 0 9 9 7 12 -12 12 -19 0 -21 -3 -12 -12z"/>
<path d="M5460 3972 c0 -5 14 -7 30 -4 17 2 30 6 30 8 0 2 -13 4 -30 4 -16 0
-30 -4 -30 -8z"/>
<path d="M5578 3973 c7 -3 16 -2 19 1 4 3 -2 6 -13 5 -11 0 -14 -3 -6 -6z"/>
<path d="M4755 3960 c3 -5 8 -10 11 -10 2 0 4 5 4 10 0 6 -5 10 -11 10 -5 0
-7 -4 -4 -10z"/>
<path d="M5055 3955 l-40 -13 47 1 c31 1 48 7 48 15 0 14 -4 14 -55 -3z"/>
<path d="M5127 3957 c-8 -5 -3 -7 10 -4 13 3 25 2 28 -2 5 -9 65 -2 65 8 0 10
-89 8 -103 -2z"/>
<path d="M5240 3960 c0 -5 5 -10 10 -10 6 0 10 5 10 10 0 6 -4 10 -10 10 -5 0
-10 -4 -10 -10z"/>
<path d="M4860 3950 c-12 -8 -12 -10 3 -16 21 -8 35 2 21 16 -5 5 -15 6 -24 0z"/>
<path d="M4910 3950 c0 -5 5 -10 11 -10 5 0 7 5 4 10 -3 6 -8 10 -11 10 -2 0
-4 -4 -4 -10z"/>
<path d="M4987 3953 c-12 -12 -7 -22 8 -17 8 4 15 10 15 15 0 11 -14 12 -23 2z"/>
<path d="M4694 3939 c-2 -4 2 -9 9 -11 14 -6 37 1 37 11 0 9 -40 9 -46 0z"/>
<path d="M4785 3940 c-3 -5 -1 -10 4 -10 6 0 11 5 11 10 0 6 -2 10 -4 10 -3 0
-8 -4 -11 -10z"/>
<path d="M4552 3931 c-7 -4 -35 -6 -61 -3 -31 3 -51 0 -56 -7 -5 -9 14 -10 77
-5 45 3 91 6 100 6 10 0 20 3 23 9 8 11 -65 12 -83 0z"/>
<path d="M4090 3908 c0 -6 -11 -7 -24 -4 -26 6 -59 -2 -52 -13 2 -3 24 -5 48
-3 23 1 55 2 70 2 26 0 49 16 25 18 -7 0 -24 3 -39 5 -16 2 -28 0 -28 -5z"/>
<path d="M4220 3909 c0 -8 24 -14 44 -10 5 1 35 6 65 11 56 8 55 8 -26 8 -46
0 -83 -4 -83 -9z"/>
<path d="M4185 3900 c3 -5 8 -10 11 -10 2 0 4 5 4 10 0 6 -5 10 -11 10 -5 0
-7 -4 -4 -10z"/>
<path d="M3705 3881 c-10 -9 -84 -21 -160 -25 -22 -2 -44 -4 -50 -6 -5 -2 -19
1 -29 5 -13 6 -21 4 -24 -3 -2 -7 -13 -12 -25 -13 -22 0 -22 -1 1 -12 14 -6
26 -7 30 -1 4 5 30 10 57 11 103 4 200 15 209 23 4 4 7 13 5 20 -3 7 -8 7 -14
1z"/>
<path d="M2130 3820 c0 -5 7 -7 15 -4 8 4 15 8 15 10 0 2 -7 4 -15 4 -8 0 -15
-4 -15 -10z"/>
<path d="M2383 3823 c9 -2 23 -2 30 0 6 3 -1 5 -18 5 -16 0 -22 -2 -12 -5z"/>
<path d="M3150 3819 c0 -5 5 -7 10 -4 6 3 10 8 10 11 0 2 -4 4 -10 4 -5 0 -10
-5 -10 -11z"/>
<path d="M2298 3813 c6 -2 18 -2 25 0 6 3 1 5 -13 5 -14 0 -19 -2 -12 -5z"/>
<path d="M5858 3 c12 -2 32 -2 45 0 12 2 2 4 -23 4 -25 0 -35 -2 -22 -4z"/>
</g>
</svg>
